<svg width="24" height="24" viewBox="0 0 24 24" fill="none" xmlns="http://www.w3.org/2000/svg">
  <path d="M17.946 9.19006C17.3742 9.40477 16.8816 9.78883 16.5339 10.2909C16.1861 10.793 15.9999 11.3893 16 12.0001V13.0001C16 14.3001 16.826 15.4061 17.982 15.8231C17.346 17.1351 16.267 17.9181 15.122 18.3871C14.4411 18.6595 13.7279 18.8427 13 18.9321V17.0001C13 16.7348 12.8946 16.4805 12.7071 16.293C12.5196 16.1054 12.2652 16.0001 12 16.0001C11.7348 16.0001 11.4804 16.1054 11.2929 16.293C11.1054 16.4805 11 16.7348 11 17.0001V20.0001C11 20.2653 11.1054 20.5196 11.2929 20.7072C11.4804 20.8947 11.7348 21.0001 12 21.0001C12.838 21.0001 14.35 20.8631 15.879 20.2381C17.415 19.6101 19.023 18.4611 19.907 16.4221L20.255 15.7261C20.7761 15.4861 21.2174 15.1017 21.5267 14.6186C21.8359 14.1354 22.0002 13.5737 22 13.0001V12.0001C21.9999 11.3717 21.8026 10.7592 21.4359 10.249C21.0692 9.7387 20.5516 9.35644 19.956 9.15606C19.7468 7.19188 18.8184 5.37452 17.3496 4.05382C15.8807 2.73312 13.9753 2.00244 12 2.00244C10.0247 2.00244 8.11926 2.73312 6.65042 4.05382C5.18158 5.37452 4.2532 7.19188 4.044 9.15606C3.44844 9.35644 2.93081 9.7387 2.56409 10.249C2.19737 10.7592 2.00007 11.3717 2 12.0001V13.0001C2 13.7957 2.31607 14.5588 2.87868 15.1214C3.44129 15.684 4.20435 16.0001 5 16.0001C5.79565 16.0001 6.55871 15.684 7.12132 15.1214C7.68393 14.5588 8 13.7957 8 13.0001V12.0001C8.00011 11.3893 7.81387 10.793 7.46615 10.2909C7.11842 9.78883 6.62577 9.40477 6.054 9.19006C6.25002 7.75221 6.96041 6.4341 8.05364 5.4798C9.14686 4.5255 10.5489 3.99966 12 3.99966C13.4511 3.99966 14.8531 4.5255 15.9464 5.4798C17.0396 6.4341 17.75 7.75221 17.946 9.19006ZM20 12.0001V13.0001C20 13.1314 19.9742 13.2614 19.9239 13.3828C19.8737 13.5041 19.8 13.6144 19.7072 13.7073C19.6143 13.8001 19.5041 13.8738 19.3827 13.9241C19.2614 13.9743 19.1313 14.0002 19 14.0002C18.8687 14.0002 18.7386 13.9743 18.6173 13.9241C18.4959 13.8738 18.3857 13.8001 18.2928 13.7073C18.2 13.6144 18.1263 13.5041 18.0761 13.3828C18.0258 13.2614 18 13.1314 18 13.0001V12.0001C18 11.8687 18.0258 11.7387 18.0761 11.6173C18.1263 11.496 18.2 11.3857 18.2928 11.2929C18.3857 11.2 18.4959 11.1263 18.6173 11.076C18.7386 11.0258 18.8687 10.9999 19 10.9999C19.1313 10.9999 19.2614 11.0258 19.3827 11.076C19.5041 11.1263 19.6143 11.2 19.7072 11.2929C19.8 11.3857 19.8737 11.496 19.9239 11.6173C19.9742 11.7387 20 11.8687 20 12.0001ZM6 13.0001C6.00002 13.1314 5.97417 13.2614 5.92392 13.3828C5.87368 13.5041 5.80002 13.6144 5.70716 13.7073C5.6143 13.8001 5.50405 13.8738 5.38272 13.9241C5.26138 13.9743 5.13133 14.0002 5 14.0002C4.86867 14.0002 4.73862 13.9743 4.61728 13.9241C4.49595 13.8738 4.3857 13.8001 4.29284 13.7073C4.19998 13.6144 4.12632 13.5041 4.07608 13.3828C4.02583 13.2614 3.99998 13.1314 4 13.0001V12.0001C3.99998 11.8687 4.02583 11.7387 4.07608 11.6173C4.12632 11.496 4.19998 11.3857 4.29284 11.2929C4.3857 11.2 4.49595 11.1263 4.61728 11.076C4.73862 11.0258 4.86867 10.9999 5 10.9999C5.13133 10.9999 5.26138 11.0258 5.38272 11.076C5.50405 11.1263 5.6143 11.2 5.70716 11.2929C5.80002 11.3857 5.87368 11.496 5.92392 11.6173C5.97417 11.7387 6.00002 11.8687 6 12.0001V13.0001Z" fill="#333333"/>
</svg>
