<svg width="24" height="24" viewBox="0 0 24 24" fill="none" xmlns="http://www.w3.org/2000/svg">
  <path d="M18.7097 2.40002C19.4386 2.40135 20.1377 2.69131 20.6531 3.20674C21.1685 3.72218 21.4585 4.42125 21.4598 5.15018V6.90002H21.7097C21.9086 6.90002 22.0996 6.97922 22.2403 7.11987C22.3808 7.26051 22.4597 7.45119 22.4597 7.65002C22.4597 7.84886 22.3808 8.03954 22.2403 8.18018C22.0996 8.32083 21.9086 8.40003 21.7097 8.40003H21.4598V9.39987H22.2098C22.4087 9.39987 22.5993 9.4791 22.74 9.61971C22.8806 9.76033 22.9598 9.95101 22.9598 10.1499C22.9598 10.3488 22.8806 10.5398 22.74 10.6805C22.5993 10.821 22.4086 10.8999 22.2098 10.8999H21.4598V16.65C21.4585 17.3789 21.1684 18.0776 20.6531 18.593C20.1377 19.1084 19.4386 19.3989 18.7097 19.4002H17.85C17.6879 19.9763 17.3417 20.4835 16.8647 20.8449C16.3876 21.2062 15.8056 21.4017 15.2071 21.4017C14.6087 21.4017 14.0266 21.2062 13.5496 20.8449C13.0727 20.4835 12.7268 19.9762 12.5648 19.4002H9.84981C9.68778 19.9762 9.34192 20.4835 8.86496 20.8449C8.38797 21.2062 7.80587 21.4017 7.20746 21.4017C6.60899 21.4017 6.02653 21.2063 5.54949 20.8449C5.07257 20.4835 4.72666 19.9762 4.56465 19.4002H3.70965C2.98076 19.3988 2.28209 19.1084 1.76668 18.593C1.25128 18.0776 0.961287 17.3789 0.959961 16.65V11.3349C0.960926 10.8414 1.09469 10.3573 1.34715 9.93331C1.59963 9.50932 1.96141 9.16099 2.3948 8.92503L5.80965 7.05987C6.00616 6.95235 6.17015 6.79404 6.28449 6.60143C6.39884 6.4088 6.45952 6.18888 6.45981 5.96487V5.15018C6.46113 4.42124 6.75109 3.72218 7.26652 3.20674C7.78196 2.69131 8.48103 2.40135 9.20996 2.40002H18.7097ZM7.20981 17.4C6.87829 17.4 6.56016 17.5317 6.32574 17.7661C6.09137 18.0005 5.95965 18.3187 5.95965 18.6502C5.95969 18.9816 6.09145 19.2994 6.32574 19.5338C6.56016 19.7682 6.87829 19.8999 7.20981 19.8999C7.37391 19.8999 7.53632 19.8675 7.68793 19.8047C7.83959 19.7419 7.9778 19.6498 8.09387 19.5338C8.20987 19.4177 8.30202 19.2799 8.36481 19.1283C8.42757 18.9767 8.45994 18.8142 8.45996 18.6502C8.44758 18.3226 8.3116 18.0115 8.07981 17.7797C7.84803 17.548 7.5373 17.4124 7.20981 17.4ZM15.6881 17.4952C15.4597 17.4006 15.2082 17.3757 14.9657 17.4239C14.7233 17.4722 14.5007 17.5914 14.3259 17.7661C14.1511 17.9409 14.032 18.1636 13.9837 18.406C13.9355 18.6484 13.9604 18.8999 14.055 19.1283C14.1496 19.3567 14.3097 19.552 14.5153 19.6894C14.7208 19.8268 14.9627 19.8999 15.21 19.8999C15.3741 19.8999 15.5365 19.8675 15.6881 19.8047C15.8397 19.7419 15.9775 19.6498 16.0936 19.5338C16.2096 19.4177 16.3017 19.28 16.3645 19.1283C16.4273 18.9767 16.4596 18.8143 16.4597 18.6502C16.4597 18.403 16.3865 18.1611 16.2492 17.9555C16.1118 17.7499 15.9165 17.5898 15.6881 17.4952ZM9.20996 3.90002C8.87845 3.90002 8.56032 4.0317 8.3259 4.26612C8.09148 4.50054 7.95981 4.81866 7.95981 5.15018V5.96018C7.95974 6.45446 7.82651 6.93963 7.57402 7.36456C7.3215 7.78953 6.95911 8.13879 6.52496 8.37518L3.10965 10.2399C2.91319 10.3474 2.74914 10.5057 2.6348 10.6983C2.52048 10.8909 2.46027 11.1109 2.45996 11.3349V16.65C2.45996 16.8141 2.49233 16.9765 2.55512 17.1282C2.61794 17.2798 2.70998 17.418 2.82605 17.5341C2.9421 17.6501 3.07994 17.7422 3.23152 17.805C3.3831 17.8678 3.54559 17.9002 3.70965 17.9002H4.56465C4.7286 17.3248 5.07559 16.8182 5.55277 16.4574C6.02994 16.0966 6.61161 15.901 7.20981 15.9C7.80553 15.9085 8.38302 16.107 8.85793 16.4667C9.33285 16.8265 9.68039 17.329 9.84981 17.9002H12.57C12.732 17.3241 13.0778 16.8164 13.5548 16.455C14.0318 16.0937 14.6139 15.8982 15.2123 15.8982C15.8107 15.8982 16.3928 16.0937 16.8698 16.455C17.3468 16.8164 17.6926 17.3241 17.8547 17.9002H18.7097C19.0411 17.9002 19.3593 17.7685 19.5937 17.5341C19.8281 17.2997 19.9598 16.9815 19.9598 16.65V10.8999H19.2098C19.011 10.8999 18.8203 10.821 18.6797 10.6805C18.539 10.5398 18.4598 10.3488 18.4598 10.1499C18.4598 9.95101 18.539 9.76033 18.6797 9.61971C18.8203 9.47911 19.0109 9.39987 19.2098 9.39987H19.9598V8.40003H18.7097C18.5108 8.39998 18.3201 8.3208 18.1795 8.18018C18.0389 8.03954 17.9597 7.8489 17.9597 7.65002C17.9597 7.45115 18.0389 7.26051 18.1795 7.11987C18.3201 6.97925 18.5108 6.90007 18.7097 6.90002H19.9598V5.15018C19.9598 4.98603 19.9275 4.82324 19.8647 4.67159C19.8018 4.51996 19.7098 4.38217 19.5937 4.26612C19.4777 4.15007 19.3399 4.058 19.1882 3.99518C19.0366 3.93236 18.8738 3.90002 18.7097 3.90002H9.20996ZM11.7098 6.40034C11.9087 6.40034 12.0993 6.47953 12.24 6.62018C12.3806 6.76083 12.4598 6.95143 12.4598 7.15034V10.6505C12.4598 10.8494 12.3806 11.04 12.24 11.1807C12.0993 11.3213 11.9087 11.4005 11.7098 11.4005H9.20996C9.01105 11.4005 8.81999 11.3213 8.67934 11.1807C8.53877 11.04 8.46 10.8493 8.45996 10.6505C8.45996 10.4516 8.53868 10.2605 8.67934 10.1199C8.81999 9.97923 9.01106 9.90049 9.20996 9.90049H10.9598V7.15034C10.9598 6.95143 11.039 6.76083 11.1796 6.62018C11.3203 6.47953 11.5109 6.40034 11.7098 6.40034Z" fill="currentColor"/>
</svg>
