<svg width="24" height="24" viewBox="0 0 24 24" fill="none" xmlns="http://www.w3.org/2000/svg">
  <g clip-path="url(#clip0_813_1060)">
    <path d="M5.37121 2.40002C4.89916 2.40042 4.44643 2.58798 4.11262 2.92174C3.77884 3.25552 3.59134 3.70831 3.5909 4.18034V12.6197C2.76457 12.6759 1.98846 13.037 1.41355 13.6331C0.838638 14.2294 0.505805 15.0182 0.479804 15.8461C0.491619 16.0299 0.549889 16.2079 0.649023 16.3631C0.748128 16.5183 0.884828 16.6459 1.04652 16.7339L1.0709 16.7475L10.0934 21.2578C10.4381 21.4337 10.8207 21.5226 11.2076 21.5161H21.9326V19.5103H11.2076C11.1084 19.5224 11.0079 19.5036 10.9198 19.4564L2.64262 15.2803C2.88608 15.0105 3.18918 14.8011 3.52762 14.6686C3.86605 14.5361 4.23066 14.4844 4.59262 14.5172C6.86749 14.9792 9.07503 15.7263 11.1626 16.7414C11.2906 16.8234 11.4418 16.862 11.5934 16.8511H17.2634V14.8453H14.9412C14.9847 14.3228 15.2264 13.8366 15.6167 13.4864C15.9827 13.158 16.4537 12.9724 16.9432 12.9614H23.4912V10.9561H19.6015V4.18034C19.6011 3.70831 19.4136 3.25552 19.0798 2.92174C18.746 2.58798 18.2933 2.40042 17.8212 2.40002H5.37121ZM17.599 10.9561H17.0459C15.9899 10.943 14.9701 11.3413 14.2025 12.0666C13.4348 12.7919 12.9793 13.7874 12.9326 14.8425V14.8439H11.7973C9.80047 13.9242 7.72616 13.1826 5.59902 12.6272V4.40534H17.599V10.9561ZM9.8159 7.51643H13.3765V5.51112H9.8159V7.51643Z" fill="currentColor"/>
  </g>
  <defs>
    <clipPath id="clip0_813_1060">
      <rect width="24" height="24" fill="white"/>
    </clipPath>
  </defs>
</svg>
