<svg width="24" height="24" viewBox="0 0 24 24" fill="none" xmlns="http://www.w3.org/2000/svg">
  <path d="M20.6399 4.31995C21.0218 4.31995 21.388 4.47177 21.658 4.74182C21.9281 5.01187 22.0799 5.37803 22.0799 5.75995V18.2399C22.0799 18.6219 21.9281 18.988 21.658 19.2581C21.388 19.5281 21.0218 19.6799 20.6399 19.6799H3.35992C2.97801 19.6799 2.61185 19.5281 2.3418 19.2581C2.07174 18.988 1.91992 18.6219 1.91992 18.2399V5.75995C1.91992 5.37803 2.07174 5.01187 2.3418 4.74182C2.61185 4.47177 2.97801 4.31995 3.35992 4.31995H20.6399ZM12.4855 13.8262C12.2544 13.9734 11.9861 14.0517 11.7121 14.0517C11.4381 14.0517 11.1698 13.9734 10.9387 13.8262L3.83992 9.30698V17.2799C3.83992 17.4073 3.89053 17.5293 3.98055 17.6193C4.07056 17.7093 4.19262 17.7599 4.31992 17.7599H19.6799C19.8072 17.7599 19.9293 17.7093 20.0193 17.6193C20.1093 17.5293 20.1599 17.4073 20.1599 17.2799V8.94042L12.4855 13.8262ZM4.31992 6.23995C4.25689 6.23995 4.19441 6.25239 4.13617 6.27651C4.07796 6.30063 4.0251 6.33602 3.98055 6.38057C3.93599 6.42513 3.90061 6.47798 3.87648 6.5362C3.85236 6.59443 3.83992 6.65691 3.83992 6.71995V7.03073L11.7121 12.0421L20.1562 6.66651C20.1512 6.62185 20.1406 6.57788 20.1234 6.5362C20.0992 6.47798 20.0639 6.42513 20.0193 6.38057C19.9747 6.33602 19.9219 6.30063 19.8637 6.27651C19.8054 6.25239 19.743 6.23995 19.6799 6.23995H4.31992Z" fill="#333333"/>
</svg>
