<svg width="24" height="24" viewBox="0 0 24 24" fill="none" xmlns="http://www.w3.org/2000/svg">
  <path d="M19.9547 5.41714C19.9547 5.1989 20.0414 4.9896 20.1957 4.83529C20.35 4.68097 20.5593 4.59428 20.7775 4.59428C20.9958 4.59428 21.2051 4.68097 21.3594 4.83529C21.5137 4.9896 21.6004 5.1989 21.6004 5.41714V19.9543C21.6004 21.6206 20.2495 22.9714 18.5832 22.9714H5.41753C3.75125 22.9714 2.40039 21.6206 2.40039 19.9543V4.04571C2.40039 2.37942 3.75125 1.02856 5.41753 1.02856H20.7775C20.9958 1.02856 21.2051 1.11526 21.3594 1.26957C21.5137 1.42389 21.6004 1.63319 21.6004 1.85142C21.6004 2.06966 21.5137 2.27895 21.3594 2.43327C21.2051 2.58759 20.9958 2.67428 20.7775 2.67428H5.41753C5.23743 2.67428 5.0591 2.70975 4.89271 2.77867C4.72632 2.84759 4.57514 2.94861 4.44779 3.07596C4.32044 3.20331 4.21942 3.3545 4.1505 3.52088C4.08158 3.68727 4.04611 3.86561 4.04611 4.04571V19.9543C4.04611 20.1344 4.08158 20.3127 4.1505 20.4791C4.21942 20.6455 4.32044 20.7967 4.44779 20.924C4.57514 21.0514 4.72632 21.1524 4.89271 21.2213C5.0591 21.2902 5.23743 21.3257 5.41753 21.3257H18.5832C18.7633 21.3257 18.9417 21.2902 19.1081 21.2213C19.2745 21.1524 19.4256 21.0514 19.553 20.924C19.6803 20.7967 19.7814 20.6455 19.8503 20.4791C19.9192 20.3127 19.9547 20.1344 19.9547 19.9543V5.41714ZM7.61182 10.08C7.39358 10.08 7.18429 9.9933 7.02997 9.83898C6.87566 9.68467 6.78896 9.47537 6.78896 9.25714C6.78896 9.0389 6.87566 8.8296 7.02997 8.67529C7.18429 8.52097 7.39358 8.43428 7.61182 8.43428H16.389C16.6072 8.43428 16.8165 8.52097 16.9708 8.67529C17.1251 8.8296 17.2118 9.0389 17.2118 9.25714C17.2118 9.47537 17.1251 9.68467 16.9708 9.83898C16.8165 9.9933 16.6072 10.08 16.389 10.08H7.61182ZM7.61182 14.4686C7.39358 14.4686 7.18429 14.3819 7.02997 14.2276C6.87566 14.0732 6.78896 13.8639 6.78896 13.6457C6.78896 13.4275 6.87566 13.2182 7.02997 13.0639C7.18429 12.9095 7.39358 12.8229 7.61182 12.8229H13.0975C13.3158 12.8229 13.5251 12.9095 13.6794 13.0639C13.8337 13.2182 13.9204 13.4275 13.9204 13.6457C13.9204 13.8639 13.8337 14.0732 13.6794 14.2276C13.5251 14.3819 13.3158 14.4686 13.0975 14.4686H7.61182Z" fill="currentColor"/>
</svg>
