<svg width="24" height="24" viewBox="0 0 24 24" fill="none" xmlns="http://www.w3.org/2000/svg">
  <path fill-rule="evenodd" clip-rule="evenodd" d="M7.51172 2.54054C6.94936 1.97819 6.0376 1.97819 5.47525 2.54054L2.45952 5.55627L2.38669 5.7262L3.26907 6.10436C2.38669 5.7262 2.38634 5.72703 2.38598 5.72787L2.38523 5.72964L2.38363 5.73343L2.38005 5.74204C2.3775 5.74825 2.37463 5.75538 2.37146 5.76342C2.36514 5.7795 2.35766 5.79925 2.34931 5.82261C2.33261 5.86933 2.31241 5.93053 2.291 6.00582C2.24817 6.15643 2.2005 6.36328 2.16619 6.62301C2.09738 7.14403 2.08332 7.87077 2.26408 8.77458C2.62693 10.5888 3.75884 13.0429 6.66319 15.9473C9.56754 18.8516 12.0216 19.9835 13.8359 20.3464C14.7397 20.5272 15.4664 20.5131 15.9875 20.4443C16.2472 20.41 16.454 20.3623 16.6047 20.3195C16.6799 20.2981 16.7411 20.2779 16.7879 20.2612C16.8112 20.2528 16.831 20.2453 16.8471 20.239C16.8551 20.2358 16.8622 20.233 16.8684 20.2304L16.877 20.2268L16.8808 20.2252L16.8826 20.2245C16.8834 20.2241 16.8843 20.2238 16.5061 19.3414L16.8843 20.2238L17.0542 20.151L20.0699 17.1352C20.6323 16.5729 20.6323 15.6611 20.0699 15.0988L17.3546 12.3835C16.7923 11.8211 15.8805 11.8211 15.3182 12.3835L13.4314 14.2703C13.3126 14.2037 13.177 14.124 13.0268 14.0301C12.4029 13.6401 11.5279 13.0056 10.5664 12.0441C9.6049 11.0825 8.97034 10.2076 8.58035 9.58364C8.48649 9.43346 8.40681 9.29785 8.34019 9.17912L10.227 7.2923C10.7894 6.72994 10.7894 5.81819 10.227 5.25583L7.51172 2.54054ZM7.1723 8.98936C6.28097 9.34589 6.28108 9.34617 6.28119 9.34645L6.28143 9.34705L6.28196 9.34836L6.28321 9.35146L6.28651 9.35952L6.2963 9.38297C6.30427 9.40181 6.31516 9.42703 6.32914 9.45828C6.35711 9.52079 6.39745 9.60749 6.45154 9.71566C6.5597 9.93198 6.72293 10.2344 6.9522 10.6012C7.41074 11.3349 8.13382 12.3267 9.20877 13.4017C10.2837 14.4767 11.2756 15.1997 12.0092 15.6583C12.3761 15.8875 12.6785 16.0508 12.8948 16.1589C13.003 16.213 13.0897 16.2534 13.1522 16.2813C13.1834 16.2953 13.2087 16.3062 13.2275 16.3142L13.251 16.324L13.259 16.3273L13.2621 16.3285L13.2634 16.329L13.264 16.3293C13.2643 16.3294 13.2646 16.3295 13.6211 15.4382L13.2646 16.3295L13.8523 16.5646L16.3364 14.0805L18.3729 16.117L15.9956 18.4943C15.93 18.5096 15.8432 18.5267 15.7361 18.5408C15.4139 18.5834 14.8996 18.6011 14.2124 18.4637C12.8447 18.1901 10.7168 17.2856 8.02083 14.5896C5.3249 11.8937 4.42033 9.76574 4.14679 8.39803C4.00935 7.71085 4.02711 7.19661 4.06966 6.87441C4.08382 6.76727 4.10083 6.68051 4.11617 6.61491L6.49348 4.2376L8.52995 6.27406L6.04587 8.75815L6.28097 9.34589L7.1723 8.98936Z" fill="#333333"/>
</svg>
